<?xml version="1.0" standalone="no"?><!DOCTYPE svg PUBLIC "-//W3C//DTD SVG 1.1//EN" "http://www.w3.org/Graphics/SVG/1.1/DTD/svg11.dtd"><svg t="1700464647912" class="icon" viewBox="0 0 1024 1024" version="1.1" xmlns="http://www.w3.org/2000/svg" p-id="1605" xmlns:xlink="http://www.w3.org/1999/xlink" width="128" height="128"><path d="M512 85.333333c160.682667 0 300.586667 41.6 373.333333 103.082667 34.005333 28.757333 53.333333 61.738667 53.333334 96.896v298.496a257.408 257.408 0 0 0-55.210667-59.818667 41.898667 41.898667 0 0 0 1.877333-12.330666V382.293333c-72.746667 61.482667-212.650667 103.082667-373.333333 103.082667S211.413333 443.733333 138.666667 382.250667v129.408c0 13.354667 6.656 27.52 19.84 42.112 16.512 18.218667 42.24 35.882667 74.496 50.986666 35.242667 16.512 76.757333 29.568 123.306666 38.826667 38.954667 7.68 79.914667 12.373333 122.112 14.037333-4.693333 16.938667-7.637333 34.688-8.661333 52.906667-142.677333-6.485333-264.789333-45.994667-331.093333-102.016v130.133333c0 13.44 6.656 27.605333 19.84 42.112 16.512 18.261333 42.24 35.925333 74.496 50.986667 35.242667 16.512 76.757333 29.610667 123.306666 38.826667a803.029333 803.029333 0 0 0 169.002667 14.592c15.616 19.498667 34.090667 36.693333 54.741333 50.986666-22.186667 1.664-44.885333 2.517333-68.053333 2.517334-235.648 0-426.666667-89.6-426.666667-200.021334V285.354667c0-35.157333 19.328-68.138667 53.333334-96.896C211.413333 126.933333 351.317333 85.333333 512 85.333333z m0 53.333334c-54.186667 0-106.496 4.906667-155.648 14.677333-46.592 9.258667-88.106667 22.314667-123.349333 38.826667-32.256 15.061333-58.026667 32.725333-74.496 50.986666-13.184 14.592-19.84 28.757333-19.84 42.197334 0 13.397333 6.656 27.562667 19.84 41.984 16.512 18.261333 42.24 35.925333 74.496 50.986666 35.242667 16.512 76.757333 29.610667 123.306666 38.826667 49.194667 9.770667 101.589333 14.677333 155.690667 14.677333 54.101333 0 106.496-4.906667 155.648-14.677333 46.592-9.216 88.106667-22.229333 123.349333-38.826667 32.256-15.061333 58.026667-32.725333 74.496-50.986666 13.184-14.506667 19.84-28.672 19.84-42.069334 0-13.354667-6.656-27.52-19.84-42.112-16.512-18.261333-42.24-35.925333-74.496-50.986666-35.242667-16.512-76.757333-29.568-123.306666-38.826667A802.432 802.432 0 0 0 512 138.666667z" fill="#fff" p-id="1606"></path><path d="M186.666667 496.768a31.658667 31.658667 0 1 0 63.317333 0 31.658667 31.658667 0 0 0-63.317333 0zM186.666667 712.106667a31.658667 31.658667 0 1 0 63.317333 0 31.658667 31.658667 0 0 0-63.317333 0z" fill="#fff" p-id="1607"></path><path d="M575.317333 851.882667a25.6 25.6 0 1 1 39.168-32.938667 145.109333 145.109333 0 0 0 183.381334 32 25.6 25.6 0 1 1 25.6 44.373333 196.309333 196.309333 0 0 1-248.149334-43.434666zM909.952 791.978667a25.6 25.6 0 1 1-48.128-17.450667 145.109333 145.109333 0 0 0-63.957333-174.848 25.6 25.6 0 1 1 25.6-44.330667 196.309333 196.309333 0 0 1 86.485333 236.629334zM690.773333 532.096a25.6 25.6 0 0 1 8.96 50.432A145.109333 145.109333 0 0 0 580.266667 725.333333a25.6 25.6 0 1 1-51.2 0c0-95.488 68.693333-176.64 161.706666-193.237333z" fill="#fff" p-id="1608"></path><path d="M693.76 725.418667a31.658667 31.658667 0 1 0 63.317333 0 31.658667 31.658667 0 0 0-63.317333 0z" fill="#fff" p-id="1609"></path></svg>